<svg aria-hidden="true" style="position: absolute; width: 0; height: 0; overflow: hidden;" version="1.1" xmlns="http://www.w3.org/2000/svg" xmlns:xlink="http://www.w3.org/1999/xlink">
<defs>
<symbol id="4" viewBox="0 0 32 32">
<path fill="#f37321" style="fill: var(--color1, #f37321)" d="M16.512 12.8c-0.139 0.004-0.272 0.062-0.37 0.162l-2.814 2.805-1.733-1.728c-0.485-0.506-1.269 0.275-0.763 0.759l2.115 2.11c0.21 0.21 0.551 0.21 0.763 0l3.195-3.186c0.352-0.341 0.093-0.923-0.391-0.923h-0.001zM0.533 17.067h3.2c0.295 0 0.533 0.238 0.533 0.533s-0.238 0.533-0.533 0.533h-3.2c-0.295 0-0.533-0.238-0.533-0.533s0.238-0.533 0.533-0.533zM0.533 12.8h3.2c0.295 0 0.533 0.238 0.533 0.533s-0.238 0.533-0.533 0.533h-3.2c-0.295 0-0.533-0.238-0.533-0.533s0.238-0.533 0.533-0.533zM0.533 8.533h3.2c0.295 0 0.533 0.238 0.533 0.533s-0.238 0.533-0.533 0.533h-3.2c-0.295 0-0.533-0.238-0.533-0.533s0.238-0.533 0.533-0.533zM26.133 20.267c-1.467 0-2.667 1.2-2.667 2.667s1.2 2.667 2.667 2.667c1.467 0 2.667-1.2 2.667-2.667s-1.2-2.667-2.667-2.667zM26.133 21.333c0.89 0 1.6 0.71 1.6 1.6s-0.71 1.6-1.6 1.6c-0.89 0-1.6-0.71-1.6-1.6s0.71-1.6 1.6-1.6zM12.267 20.267c-1.467 0-2.667 1.2-2.667 2.667s1.2 2.667 2.667 2.667c1.467 0 2.667-1.2 2.667-2.667s-1.2-2.667-2.667-2.667zM12.267 21.333c0.89 0 1.6 0.71 1.6 1.6s-0.71 1.6-1.6 1.6c-0.89 0-1.6-0.71-1.6-1.6s0.71-1.6 1.6-1.6zM6.933 6.4c-0.877 0-1.6 0.723-1.6 1.6v11.733c0 0.877 0.723 1.6 1.6 1.6h2.133c0.721 0.011 0.721-1.077 0-1.067h-2.133c-0.305 0-0.533-0.228-0.533-0.533v-11.733c0-0.305 0.228-0.533 0.533-0.533h13.867c0.305 0 0.533 0.228 0.533 0.533v12.267h-5.867c-0.704 0-0.691 1.077 0 1.067h7.467c0.704 0 0.698-1.067 0-1.067h-0.533v-9.6h4.509l4.025 6.289v2.778c0 0.305-0.228 0.533-0.533 0.533h-1.067c-0.698 0-0.698 1.067 0 1.067h1.067c0.877 0 1.6-0.723 1.6-1.6v-2.933c0-0.101-0.029-0.203-0.083-0.288l-4.267-6.667c-0.098-0.153-0.267-0.245-0.45-0.245h-4.8v-1.6c0-0.877-0.723-1.6-1.6-1.6h-13.867z"></path>
</symbol>
<symbol id="3" viewBox="0 0 34 32">
<path fill="#f37321" style="fill: var(--color1, #f37321)" d="M18.544 3.232c-0.033-0.102-0.094-0.192-0.175-0.261s-0.181-0.114-0.287-0.129l-1.875-0.27-0.838-1.683c-0.047-0.095-0.12-0.175-0.211-0.231s-0.195-0.086-0.301-0.086-0.21 0.030-0.301 0.086c-0.090 0.056-0.163 0.136-0.211 0.231l-0.838 1.683-1.875 0.27c-0.106 0.015-0.205 0.060-0.287 0.129s-0.142 0.159-0.175 0.261c-0.033 0.102-0.037 0.211-0.011 0.314s0.080 0.198 0.157 0.272l1.354 1.309-0.319 1.847c-0.018 0.105-0.007 0.213 0.033 0.312s0.107 0.184 0.193 0.247c0.086 0.063 0.188 0.1 0.294 0.108s0.213-0.014 0.307-0.063l1.679-0.875 1.679 0.875c0.094 0.049 0.201 0.071 0.307 0.063s0.208-0.045 0.294-0.108c0.086-0.063 0.153-0.148 0.193-0.247s0.052-0.207 0.033-0.312l-0.321-1.847 1.354-1.309c0.077-0.074 0.131-0.169 0.157-0.272s0.022-0.213-0.011-0.314zM16.031 4.516c-0.067 0.065-0.117 0.145-0.146 0.234s-0.036 0.183-0.020 0.275l0.174 1.007-0.918-0.479c-0.082-0.043-0.172-0.065-0.264-0.065s-0.183 0.022-0.264 0.065l-0.918 0.479 0.174-1.007c0.016-0.092 0.009-0.186-0.020-0.275s-0.079-0.169-0.146-0.234l-0.733-0.709 1.018-0.147c0.091-0.013 0.178-0.048 0.253-0.103s0.136-0.126 0.177-0.208l0.46-0.924 0.46 0.924c0.041 0.083 0.102 0.154 0.177 0.208s0.162 0.089 0.253 0.103l1.018 0.147-0.733 0.709z"></path>
<path fill="#f37321" style="fill: var(--color1, #f37321)" d="M26.258 5.517c-0.033-0.102-0.094-0.192-0.175-0.261s-0.181-0.114-0.287-0.129l-1.875-0.27-0.838-1.683c-0.047-0.095-0.12-0.175-0.211-0.231s-0.195-0.086-0.301-0.086-0.21 0.030-0.301 0.086c-0.090 0.056-0.163 0.136-0.211 0.231l-0.838 1.683-1.875 0.27c-0.106 0.015-0.205 0.060-0.287 0.129s-0.142 0.159-0.175 0.261c-0.033 0.102-0.037 0.211-0.011 0.314s0.080 0.198 0.157 0.272l1.354 1.309-0.319 1.847c-0.018 0.105-0.007 0.213 0.033 0.312s0.107 0.184 0.193 0.247c0.086 0.063 0.188 0.1 0.294 0.108s0.213-0.014 0.307-0.063l1.679-0.875 1.679 0.875c0.094 0.049 0.201 0.071 0.307 0.063s0.208-0.046 0.294-0.108c0.086-0.063 0.153-0.148 0.193-0.247s0.052-0.207 0.033-0.312l-0.321-1.847 1.354-1.309c0.077-0.074 0.131-0.169 0.157-0.272s0.022-0.213-0.011-0.314zM23.746 6.801c-0.067 0.065-0.117 0.145-0.146 0.234s-0.036 0.183-0.020 0.275l0.174 1.007-0.918-0.479c-0.082-0.043-0.172-0.065-0.264-0.065s-0.183 0.022-0.264 0.065l-0.918 0.479 0.174-1.007c0.016-0.092 0.009-0.186-0.020-0.275s-0.079-0.169-0.146-0.234l-0.733-0.709 1.018-0.147c0.091-0.013 0.178-0.048 0.253-0.103s0.136-0.126 0.177-0.208l0.46-0.924 0.46 0.924c0.041 0.083 0.102 0.154 0.177 0.208s0.162 0.089 0.253 0.103l1.018 0.147-0.733 0.709z"></path>
<path fill="#f37321" style="fill: var(--color1, #f37321)" d="M10.829 5.874c-0.033-0.102-0.094-0.192-0.175-0.261s-0.181-0.114-0.287-0.129l-1.875-0.27-0.838-1.683c-0.047-0.095-0.12-0.175-0.211-0.231s-0.195-0.086-0.301-0.086-0.21 0.030-0.301 0.086c-0.090 0.056-0.163 0.136-0.211 0.231l-0.838 1.683-1.875 0.27c-0.106 0.015-0.205 0.060-0.287 0.129s-0.142 0.159-0.175 0.261c-0.033 0.102-0.037 0.211-0.011 0.314s0.080 0.198 0.157 0.272l1.354 1.309-0.319 1.847c-0.018 0.105-0.007 0.213 0.033 0.312s0.107 0.184 0.193 0.247c0.086 0.063 0.188 0.1 0.294 0.108s0.213-0.014 0.307-0.063l1.679-0.875 1.679 0.875c0.094 0.049 0.201 0.071 0.307 0.063s0.208-0.046 0.294-0.108c0.086-0.063 0.153-0.148 0.193-0.247s0.052-0.207 0.033-0.312l-0.321-1.847 1.354-1.309c0.077-0.074 0.131-0.169 0.157-0.272s0.022-0.213-0.011-0.314zM8.317 7.158c-0.067 0.065-0.117 0.145-0.146 0.234s-0.036 0.183-0.020 0.275l0.174 1.007-0.918-0.479c-0.082-0.043-0.172-0.065-0.264-0.065s-0.183 0.022-0.264 0.065l-0.918 0.479 0.174-1.007c0.016-0.092 0.009-0.186-0.020-0.275s-0.079-0.169-0.146-0.234l-0.733-0.709 1.018-0.147c0.091-0.013 0.178-0.048 0.253-0.103s0.136-0.126 0.177-0.208l0.46-0.924 0.46 0.924c0.041 0.083 0.102 0.154 0.177 0.208s0.162 0.089 0.253 0.103l1.018 0.147-0.733 0.709z"></path>
<path fill="#f37321" style="fill: var(--color1, #f37321)" d="M33.714 22.286h-3.429c-0.109 0-0.216 0.031-0.308 0.090s-0.165 0.143-0.211 0.242c-0.046-0.073-0.087-0.149-0.121-0.229l-1.121-2.615c-0.002-0.004-0.003-0.008-0.005-0.011l-2.857-6.286c-0.032-0.070-0.077-0.133-0.134-0.185s-0.123-0.092-0.196-0.117c-0.072-0.026-0.149-0.036-0.226-0.032s-0.152 0.025-0.22 0.059c-0.703 0.351-1.138 0.796-1.389 1.29-1.986-1.616-4.386-2.641-6.927-2.958v-1.25h0.571c0.152 0 0.297-0.060 0.404-0.167s0.167-0.252 0.167-0.404-0.060-0.297-0.167-0.404c-0.107-0.107-0.253-0.167-0.404-0.167h-4.571c-0.152 0-0.297 0.060-0.404 0.167s-0.167 0.252-0.167 0.404c0 0.152 0.060 0.297 0.167 0.404s0.252 0.167 0.404 0.167h0.571v1.25c-6.571 0.823-11.71 6.312-11.987 13.036h-0.584c-0.152 0-0.297 0.060-0.404 0.167s-0.167 0.253-0.167 0.404v1.143c0.001 0.454 0.181 0.89 0.503 1.212s0.757 0.502 1.212 0.503h15.867c0.22 0.246 0.507 0.424 0.826 0.511-0.103 0.26-0.141 0.541-0.111 0.819s0.129 0.544 0.286 0.776 0.369 0.421 0.616 0.552c0.247 0.131 0.523 0.199 0.803 0.199h9.714c0 0.152 0.060 0.297 0.167 0.404s0.253 0.167 0.404 0.167h3.429c0.152 0 0.297-0.060 0.404-0.167s0.167-0.253 0.167-0.404v-8c0-0.152-0.060-0.297-0.167-0.404s-0.252-0.167-0.404-0.167zM14.286 10.286h1.143v1.155c-0.19-0.008-0.38-0.012-0.571-0.012s-0.382 0.005-0.571 0.013v-1.156zM14.857 12.571c3.080-0.004 6.054 1.127 8.354 3.177-0.012 0.948 0.34 1.935 0.621 2.724 0.070 0.198 0.137 0.384 0.197 0.565 0.272 0.817 0.244 1.294 0.186 1.534h-5.359c-0.331-0-0.655 0.096-0.933 0.276s-0.497 0.437-0.633 0.739-0.18 0.637-0.128 0.964c0.051 0.327 0.196 0.632 0.417 0.879-0.282 0.314-0.438 0.721-0.438 1.143h-14.844c0.3-6.668 5.817-12 12.558-12zM18.286 22.286c0-0.151 0.060-0.297 0.168-0.404s0.252-0.167 0.404-0.168h4.571c0.152 0 0.297 0.060 0.404 0.167s0.167 0.253 0.167 0.404c0 0.152-0.060 0.297-0.167 0.404s-0.253 0.167-0.404 0.167h-4.571c-0.151-0-0.297-0.060-0.404-0.168s-0.167-0.252-0.168-0.404zM18.286 24.571c0-0.151 0.060-0.297 0.168-0.404s0.252-0.167 0.404-0.168h4.571c0.152 0 0.297 0.060 0.404 0.167s0.167 0.253 0.167 0.404c0 0.152-0.060 0.297-0.167 0.404s-0.253 0.167-0.404 0.167h-4.571c-0.151-0-0.297-0.060-0.404-0.168s-0.167-0.252-0.168-0.404zM1.714 26.857c-0.151-0-0.297-0.060-0.404-0.168s-0.167-0.252-0.168-0.404v-0.571h16.438c-0.282 0.314-0.438 0.721-0.438 1.143h-15.429zM18.857 26.286h4.571c0.152 0 0.297 0.060 0.404 0.167s0.167 0.253 0.167 0.404c0 0.152-0.060 0.297-0.167 0.404s-0.253 0.167-0.404 0.167h-4.571c-0.152 0-0.297-0.060-0.404-0.167s-0.167-0.253-0.167-0.404 0.060-0.297 0.167-0.404c0.107-0.107 0.253-0.167 0.404-0.167zM20 29.714c-0.152 0-0.297-0.060-0.404-0.167s-0.167-0.253-0.167-0.404 0.060-0.297 0.167-0.404c0.107-0.107 0.253-0.167 0.404-0.167h3.429c0.152 0 0.297 0.060 0.404 0.167s0.167 0.253 0.167 0.404c0 0.152-0.060 0.297-0.167 0.404s-0.253 0.167-0.404 0.167h-3.429zM25.045 29.714c0.103-0.29 0.125-0.602 0.066-0.904s-0.2-0.582-0.405-0.811c0.282-0.314 0.438-0.721 0.438-1.143s-0.156-0.829-0.438-1.143c0.079-0.088 0.149-0.185 0.209-0.288 0.705 0.365 1.882 0.859 3.087 0.859 0.152 0 0.297-0.060 0.404-0.167s0.167-0.253 0.167-0.404-0.060-0.297-0.167-0.404c-0.107-0.107-0.253-0.167-0.404-0.167-1.182 0-2.403-0.631-2.891-0.913-0.061-0.298-0.2-0.575-0.404-0.801 0.226-0.252 0.372-0.565 0.421-0.9s-0.004-0.677-0.15-0.982c0.137-0.137 0.788-0.92 0.138-2.87-0.064-0.192-0.132-0.384-0.205-0.587-0.572-1.605-0.892-2.773-0.012-3.536l2.581 5.678 1.118 2.61c0.23 0.538 0.621 0.992 1.119 1.301v5.573h-4.67zM33.143 30.286h-2.286v-6.857h2.286v6.857z"></path>
</symbol>
<symbol id="2" viewBox="0 0 31 32">
<path fill="#f37321" style="fill: var(--color1, #f37321)" d="M27.835 14.183c-0.163-0.049-0.331-0.027-0.483 0.060-0.146 0.087-0.255 0.233-0.298 0.407-0.081 0.342 0.13 0.689 0.477 0.781 2.506 0.678 2.506 1.492 2.506 2.028 0 0.445-0.694 0.987-1.871 1.47-0.016-0.065-0.033-0.13-0.049-0.195-0.13-0.537-0.255-1.047-1.275-1.448-0.157-0.060-0.325-0.054-0.477 0.022-0.157 0.076-0.277 0.222-0.331 0.396-0.092 0.32 0.087 0.673 0.412 0.819 0.553 0.244 0.537 0.466 0.521 0.705 0 0.038-0.005 0.081-0.005 0.119-2.245 0.667-5.256 1.030-8.494 1.030-3.216 0-6.21-0.363-8.45-1.020 0.26-0.353 1.388-1.014 3.97-1.426 0.347-0.054 0.597-0.385 0.548-0.732-0.022-0.174-0.114-0.325-0.255-0.428-0.136-0.103-0.309-0.141-0.477-0.119-1.34 0.217-2.495 0.521-3.336 0.895-0.889 0.39-1.454 0.857-1.681 1.383-1.182-0.477-1.882-1.025-1.882-1.47 0-0.136 0.114-0.857 2.332-1.649 1.578-0.564 3.791-0.971 6.221-1.155 0.353-0.027 0.624-0.336 0.602-0.683-0.011-0.174-0.087-0.331-0.217-0.445s-0.298-0.168-0.466-0.157c-2.549 0.19-4.881 0.629-6.568 1.231-2.636 0.938-3.189 2.072-3.189 2.864 0 1.090 0.201 2.164 0.597 3.178l0.846 2.169c0.065 0.157 0.184 0.287 0.342 0.358s0.331 0.070 0.494 0.011c0.157-0.065 0.287-0.184 0.358-0.342s0.070-0.331 0.011-0.494l-0.846-2.169c-0.071-0.184-0.136-0.374-0.195-0.57 0.635 0.369 1.448 0.7 2.435 0.987 2.365 0.689 5.489 1.068 8.808 1.068s6.449-0.38 8.808-1.068c0.987-0.287 1.801-0.618 2.435-0.987-0.060 0.19-0.125 0.38-0.195 0.57l-1.746 4.491c-0.103 0.26-0.228 0.51-0.374 0.743-0.19 0.304-0.13 0.694 0.136 0.911 0.114 0.092 0.255 0.136 0.396 0.136 0.033 0 0.065 0 0.098-0.005 0.168-0.027 0.309-0.119 0.401-0.26 0.217-0.331 0.401-0.689 0.542-1.058l1.746-4.491c0.396-1.020 0.597-2.088 0.597-3.178 0.011-1.985-2.175-2.907-3.477-3.281z"></path>
<path fill="#f37321" style="fill: var(--color1, #f37321)" d="M16.852 14.753l-1.237 2.473c-0.157 0.315-0.027 0.705 0.287 0.862 0.32 0.157 0.705 0.027 0.862-0.287l1.237-2.473c0.976-1.942 2.609-3.477 4.599-4.339 0.005 0.022 0.016 0.043 0.022 0.065-1.383 1.182-2.636 2.799-3.536 4.556l-1.264 2.457c-0.081 0.152-0.092 0.325-0.043 0.494 0.054 0.163 0.168 0.298 0.32 0.374s0.325 0.092 0.494 0.043c0.163-0.054 0.298-0.168 0.374-0.32l1.264-2.457c0.814-1.595 1.947-3.059 3.189-4.133 0.033 0.022 0.065 0.043 0.098 0.065 0.033 0.016 0.060 0.038 0.092 0.054l-0.57 1.063c-0.553 1.036-1.128 2.11-1.714 3.222l-0.917 1.725c-0.168 0.315-0.043 0.705 0.266 0.873 0.315 0.168 0.705 0.043 0.873-0.266l0.917-1.725c0.586-1.112 1.155-2.18 1.708-3.211l0.515-0.965c0.005 1.546-0.38 3.070-1.123 4.431l-0.472 0.862c-0.081 0.152-0.103 0.325-0.054 0.488s0.157 0.304 0.309 0.385c0.098 0.054 0.201 0.081 0.309 0.081 0.060 0 0.125-0.011 0.184-0.027 0.163-0.049 0.304-0.157 0.385-0.309l0.472-0.862c1.003-1.833 1.432-3.894 1.237-5.977 0.195-0.152 0.358-0.342 0.488-0.553l4.057-6.622c0.298-0.483 0.385-1.058 0.255-1.605s-0.477-1.025-0.96-1.318c-0.483-0.298-1.058-0.385-1.605-0.255-0.553 0.136-1.020 0.472-1.313 0.96l-4.046 6.622c-0.076 0.125-0.141 0.26-0.19 0.396-2.517 0.933-4.561 2.761-5.771 5.153zM28.8 2.858c0.108 0.016 0.212 0.054 0.309 0.114 0.092 0.060 0.174 0.13 0.239 0.222s0.114 0.19 0.136 0.298c0.027 0.108 0.033 0.217 0.011 0.325-0.016 0.108-0.054 0.212-0.114 0.309l-4.046 6.622c-0.060 0.092-0.13 0.174-0.222 0.239s-0.19 0.114-0.298 0.136c-0.108 0.027-0.217 0.033-0.325 0.011-0.108-0.016-0.212-0.054-0.309-0.114-0.092-0.060-0.174-0.13-0.239-0.222-0.065-0.087-0.114-0.19-0.136-0.298-0.027-0.108-0.033-0.217-0.011-0.325 0.016-0.108 0.054-0.212 0.114-0.309l4.046-6.612c0.060-0.092 0.13-0.174 0.222-0.239 0.087-0.065 0.19-0.114 0.298-0.136 0.065-0.016 0.13-0.022 0.195-0.022 0.043-0.011 0.087-0.005 0.13 0z"></path>
<path fill="#f37321" style="fill: var(--color1, #f37321)" d="M0.955 24.667c0.081 0.038 0.168 0.054 0.26 0.054s0.179-0.022 0.266-0.060c0.293-0.136 0.456-0.483 0.385-0.846-0.022-0.119-0.033-0.239-0.033-0.358v-0.618c0-5.256 0.819-10.452 2.441-15.452h10.853c-0.39 1.247-0.743 2.527-1.041 3.802-0.038 0.168-0.011 0.336 0.081 0.483s0.233 0.249 0.407 0.287c0.347 0.076 0.689-0.141 0.77-0.488 0.32-1.367 0.7-2.739 1.134-4.084h0.987c0.58 0 1.123-0.228 1.535-0.635s0.635-0.955 0.635-1.535v-1.524c0-0.087-0.016-0.168-0.049-0.249s-0.081-0.146-0.141-0.206c-0.060-0.060-0.13-0.108-0.206-0.141s-0.163-0.049-0.25-0.049h-2.403c0.027-0.456 0.222-0.879 0.548-1.204 0.358-0.358 0.835-0.559 1.34-0.559h0.092c0.412 0 0.824 0.141 1.15 0.391 0.331 0.25 0.57 0.607 0.678 1.009l0.553 1.887c0.13 0.472 0.255 0.965 0.38 1.475 0.081 0.342 0.428 0.559 0.776 0.483 0.168-0.038 0.315-0.141 0.401-0.287 0.092-0.146 0.119-0.32 0.076-0.483-0.119-0.51-0.255-1.020-0.39-1.524l-0.548-1.887c-0.184-0.673-0.591-1.269-1.139-1.692-0.553-0.423-1.242-0.656-1.936-0.656h-13.82c-0.852 0-1.649 0.331-2.251 0.933s-0.933 1.405-0.933 2.256v2.034c0 0.461 0.152 0.917 0.423 1.285 0.249 0.336 0.586 0.591 0.976 0.743-1.605 5.049-2.419 10.294-2.419 15.593v0.618c0 0.282 0.038 0.57 0.114 0.846 0.043 0.163 0.146 0.287 0.298 0.358zM18.338 5.218c0 0.233-0.092 0.461-0.26 0.624-0.331 0.336-0.917 0.331-1.247 0-0.168-0.168-0.26-0.385-0.26-0.624v-0.879h1.763v0.879h0.005zM15.474 6.102h-11.742c-0.233 0-0.456-0.092-0.624-0.26s-0.26-0.391-0.26-0.624v-2.028c0-0.504 0.201-0.982 0.559-1.34s0.835-0.559 1.34-0.559h11.173c-0.407 0.548-0.629 1.209-0.629 1.898v2.034c0 0.304 0.065 0.602 0.184 0.879z"></path>
<path fill="#f37321" style="fill: var(--color1, #f37321)" d="M26.083 26.668c-0.212-0.19-0.456-0.336-0.721-0.428-0.271-0.092-0.548-0.125-0.835-0.098l-0.396 0.038c-0.325-0.51-0.776-0.933-1.302-1.226-0.553-0.309-1.177-0.472-1.812-0.477h-14.747c-0.635 0-1.258 0.163-1.812 0.472-0.526 0.293-0.976 0.721-1.302 1.226l-0.39-0.033c-0.277-0.027-0.548 0.005-0.814 0.092s-0.504 0.222-0.71 0.401c-0.206 0.179-0.374 0.401-0.499 0.651-0.119 0.25-0.184 0.515-0.201 0.792-0.011 0.277 0.033 0.548 0.13 0.808s0.244 0.494 0.434 0.694c0.19 0.201 0.418 0.358 0.673 0.466 0.309 0.136 0.651 0.19 0.982 0.157l0.396-0.038c0.325 0.51 0.776 0.927 1.302 1.226 0.553 0.309 1.177 0.477 1.806 0.477h14.747c0.005 0 0.011 0 0.011 0 0.483 0 0.955-0.092 1.405-0.277s0.852-0.456 1.199-0.803c0.19-0.19 0.358-0.396 0.499-0.618l0.396 0.038c0.472 0.043 0.944-0.081 1.334-0.347 0.342-0.233 0.597-0.559 0.748-0.944 0.146-0.385 0.179-0.797 0.081-1.199-0.087-0.418-0.298-0.776-0.602-1.052zM24.635 27.422c0.103-0.011 0.206 0 0.304 0.033s0.184 0.081 0.26 0.146c0.076 0.065 0.136 0.146 0.184 0.239 0.043 0.092 0.070 0.19 0.076 0.293s-0.011 0.201-0.043 0.298c-0.038 0.098-0.087 0.179-0.157 0.255-0.070 0.070-0.152 0.13-0.244 0.174-0.114 0.049-0.233 0.070-0.363 0.060h-0.005c0.092-0.494 0.092-1.003-0.011-1.497zM2.576 27.422c0.022 0 0.049 0 0.071 0.005l3.059 0.277c0.119 0.011 0.228 0.065 0.304 0.152 0.081 0.087 0.125 0.201 0.125 0.315s-0.043 0.228-0.125 0.315c-0.081 0.087-0.184 0.141-0.304 0.152l-3.059 0.277c-0.103 0.011-0.201 0-0.298-0.033s-0.184-0.081-0.26-0.146c-0.076-0.065-0.136-0.146-0.179-0.239-0.049-0.092-0.071-0.19-0.076-0.293s0.011-0.201 0.049-0.298c0.033-0.092 0.087-0.179 0.157-0.255s0.152-0.13 0.249-0.174c0.087-0.038 0.19-0.054 0.287-0.054zM5.825 29.923c0.439-0.038 0.841-0.239 1.139-0.564s0.461-0.743 0.461-1.188c0-0.445-0.163-0.862-0.461-1.182-0.298-0.325-0.7-0.526-1.139-0.564l-1.096-0.098c0.244-0.206 0.532-0.358 0.841-0.45 0.38-0.114 0.781-0.136 1.166-0.060s0.754 0.25 1.058 0.499c0.304 0.25 0.548 0.575 0.694 0.938 0.152 0.363 0.212 0.765 0.174 1.155s-0.174 0.776-0.396 1.101c-0.217 0.325-0.521 0.597-0.868 0.786s-0.738 0.282-1.134 0.282c-0.331 0-0.651-0.070-0.955-0.201-0.212-0.092-0.407-0.212-0.586-0.358l1.101-0.098zM9.676 29.603c0.19-0.456 0.287-0.938 0.287-1.432s-0.098-0.976-0.287-1.432c-0.152-0.358-0.353-0.683-0.602-0.976h11.943c0.477 0 0.938 0.141 1.34 0.407 0.396 0.266 0.705 0.64 0.884 1.079 0.184 0.439 0.228 0.922 0.136 1.388s-0.32 0.895-0.656 1.231c-0.228 0.228-0.488 0.401-0.781 0.521s-0.597 0.179-0.911 0.179h-11.954c0.249-0.282 0.45-0.607 0.602-0.965z"></path>
</symbol>
<symbol id="1" viewBox="0 0 32 32">
<path fill="#f37321" style="fill: var(--color1, #f37321)" d="M5.335 23.999c-0.141 0-0.277 0.056-0.377 0.156s-0.156 0.236-0.156 0.377v3.2c0 0.141 0.056 0.277 0.156 0.377s0.236 0.156 0.377 0.156 0.277-0.056 0.377-0.156c0.1-0.1 0.156-0.236 0.156-0.377v-3.2c0-0.141-0.056-0.277-0.156-0.377s-0.236-0.156-0.377-0.156z"></path>
<path fill="#f37321" style="fill: var(--color1, #f37321)" d="M7.468 23.999c-0.141 0-0.277 0.056-0.377 0.156s-0.156 0.236-0.156 0.377v3.2c0 0.141 0.056 0.277 0.156 0.377s0.236 0.156 0.377 0.156 0.277-0.056 0.377-0.156c0.1-0.1 0.156-0.236 0.156-0.377v-3.2c0-0.141-0.056-0.277-0.156-0.377s-0.236-0.156-0.377-0.156z"></path>
<path fill="#f37321" style="fill: var(--color1, #f37321)" d="M9.601 18.666c-0.141 0-0.277 0.056-0.377 0.156s-0.156 0.236-0.156 0.377v3.2c0 0.141 0.056 0.277 0.156 0.377s0.236 0.156 0.377 0.156 0.277-0.056 0.377-0.156c0.1-0.1 0.156-0.236 0.156-0.377v-3.2c0-0.141-0.056-0.277-0.156-0.377s-0.236-0.156-0.377-0.156z"></path>
<path fill="#f37321" style="fill: var(--color1, #f37321)" d="M9.601 23.999c-0.141 0-0.277 0.056-0.377 0.156s-0.156 0.236-0.156 0.377v3.2c0 0.141 0.056 0.277 0.156 0.377s0.236 0.156 0.377 0.156 0.277-0.056 0.377-0.156c0.1-0.1 0.156-0.236 0.156-0.377v-3.2c0-0.141-0.056-0.277-0.156-0.377s-0.236-0.156-0.377-0.156z"></path>
<path fill="#f37321" style="fill: var(--color1, #f37321)" d="M11.735 18.666c-0.141 0-0.277 0.056-0.377 0.156s-0.156 0.236-0.156 0.377v3.2c0 0.141 0.056 0.277 0.156 0.377s0.236 0.156 0.377 0.156 0.277-0.056 0.377-0.156c0.1-0.1 0.156-0.236 0.156-0.377v-3.2c0-0.141-0.056-0.277-0.156-0.377s-0.236-0.156-0.377-0.156z"></path>
<path fill="#f37321" style="fill: var(--color1, #f37321)" d="M11.735 23.999c-0.141 0-0.277 0.056-0.377 0.156s-0.156 0.236-0.156 0.377v3.2c0 0.141 0.056 0.277 0.156 0.377s0.236 0.156 0.377 0.156 0.277-0.056 0.377-0.156c0.1-0.1 0.156-0.236 0.156-0.377v-3.2c0-0.141-0.056-0.277-0.156-0.377s-0.236-0.156-0.377-0.156z"></path>
<path fill="#f37321" style="fill: var(--color1, #f37321)" d="M20.268 18.666c-0.141 0-0.277 0.056-0.377 0.156s-0.156 0.236-0.156 0.377v3.2c0 0.141 0.056 0.277 0.156 0.377s0.236 0.156 0.377 0.156 0.277-0.056 0.377-0.156c0.1-0.1 0.156-0.236 0.156-0.377v-3.2c0-0.141-0.056-0.277-0.156-0.377s-0.236-0.156-0.377-0.156z"></path>
<path fill="#f37321" style="fill: var(--color1, #f37321)" d="M20.268 23.999c-0.141 0-0.277 0.056-0.377 0.156s-0.156 0.236-0.156 0.377v3.2c0 0.141 0.056 0.277 0.156 0.377s0.236 0.156 0.377 0.156 0.277-0.056 0.377-0.156c0.1-0.1 0.156-0.236 0.156-0.377v-3.2c0-0.141-0.056-0.277-0.156-0.377s-0.236-0.156-0.377-0.156z"></path>
<path fill="#f37321" style="fill: var(--color1, #f37321)" d="M22.401 18.666c-0.141 0-0.277 0.056-0.377 0.156s-0.156 0.236-0.156 0.377v3.2c0 0.141 0.056 0.277 0.156 0.377s0.236 0.156 0.377 0.156 0.277-0.056 0.377-0.156c0.1-0.1 0.156-0.236 0.156-0.377v-3.2c0-0.141-0.056-0.277-0.156-0.377s-0.236-0.156-0.377-0.156z"></path>
<path fill="#f37321" style="fill: var(--color1, #f37321)" d="M22.401 23.999c-0.141 0-0.277 0.056-0.377 0.156s-0.156 0.236-0.156 0.377v3.2c0 0.141 0.056 0.277 0.156 0.377s0.236 0.156 0.377 0.156 0.277-0.056 0.377-0.156c0.1-0.1 0.156-0.236 0.156-0.377v-3.2c0-0.141-0.056-0.277-0.156-0.377s-0.236-0.156-0.377-0.156z"></path>
<path fill="#f37321" style="fill: var(--color1, #f37321)" d="M24.534 23.999c-0.141 0-0.277 0.056-0.377 0.156s-0.156 0.236-0.156 0.377v3.2c0 0.141 0.056 0.277 0.156 0.377s0.236 0.156 0.377 0.156 0.277-0.056 0.377-0.156c0.1-0.1 0.156-0.236 0.156-0.377v-3.2c0-0.141-0.056-0.277-0.156-0.377s-0.236-0.156-0.377-0.156z"></path>
<path fill="#f37321" style="fill: var(--color1, #f37321)" d="M26.667 23.999c-0.141 0-0.277 0.056-0.377 0.156s-0.156 0.236-0.156 0.377v3.2c0 0.141 0.056 0.277 0.156 0.377s0.236 0.156 0.377 0.156 0.277-0.056 0.377-0.156c0.1-0.1 0.156-0.236 0.156-0.377v-3.2c0-0.141-0.056-0.277-0.156-0.377s-0.236-0.156-0.377-0.156z"></path>
<path fill="#f37321" style="fill: var(--color1, #f37321)" d="M16.001 18.666c-0.141 0-0.277 0.056-0.377 0.156s-0.156 0.236-0.156 0.377v3.2c0 0.141 0.056 0.277 0.156 0.377s0.236 0.156 0.377 0.156 0.277-0.056 0.377-0.156c0.1-0.1 0.156-0.236 0.156-0.377v-3.2c0-0.141-0.056-0.277-0.156-0.377s-0.236-0.156-0.377-0.156z"></path>
<path fill="#f37321" style="fill: var(--color1, #f37321)" d="M16.001 23.999c-0.141 0-0.277 0.056-0.377 0.156s-0.156 0.236-0.156 0.377v3.2c0 0.141 0.056 0.277 0.156 0.377s0.236 0.156 0.377 0.156 0.277-0.056 0.377-0.156c0.1-0.1 0.156-0.236 0.156-0.377v-3.2c0-0.141-0.056-0.277-0.156-0.377s-0.236-0.156-0.377-0.156z"></path>
<path fill="#f37321" style="fill: var(--color1, #f37321)" d="M13.868 18.666c-0.141 0-0.277 0.056-0.377 0.156s-0.156 0.236-0.156 0.377v3.2c0 0.141 0.056 0.277 0.156 0.377s0.236 0.156 0.377 0.156c0.142 0 0.277-0.056 0.377-0.156s0.156-0.236 0.156-0.377v-3.2c0-0.141-0.056-0.277-0.156-0.377s-0.236-0.156-0.377-0.156z"></path>
<path fill="#f37321" style="fill: var(--color1, #f37321)" d="M13.868 23.999c-0.141 0-0.277 0.056-0.377 0.156s-0.156 0.236-0.156 0.377v3.2c0 0.141 0.056 0.277 0.156 0.377s0.236 0.156 0.377 0.156c0.142 0 0.277-0.056 0.377-0.156s0.156-0.236 0.156-0.377v-3.2c0-0.141-0.056-0.277-0.156-0.377s-0.236-0.156-0.377-0.156z"></path>
<path fill="#f37321" style="fill: var(--color1, #f37321)" d="M18.134 18.666c-0.141 0-0.277 0.056-0.377 0.156s-0.156 0.236-0.156 0.377v3.2c0 0.141 0.056 0.277 0.156 0.377s0.236 0.156 0.377 0.156 0.277-0.056 0.377-0.156c0.1-0.1 0.156-0.236 0.156-0.377v-3.2c0-0.141-0.056-0.277-0.156-0.377s-0.236-0.156-0.377-0.156z"></path>
<path fill="#f37321" style="fill: var(--color1, #f37321)" d="M18.134 23.999c-0.141 0-0.277 0.056-0.377 0.156s-0.156 0.236-0.156 0.377v3.2c0 0.141 0.056 0.277 0.156 0.377s0.236 0.156 0.377 0.156 0.277-0.056 0.377-0.156c0.1-0.1 0.156-0.236 0.156-0.377v-3.2c0-0.141-0.056-0.277-0.156-0.377s-0.236-0.156-0.377-0.156z"></path>
<path fill="#f37321" style="fill: var(--color1, #f37321)" d="M30.746 23.402l0.793-6.341c0.128-0.017 0.245-0.080 0.33-0.177s0.132-0.222 0.132-0.351v-3.2c0-0.141-0.056-0.277-0.156-0.377s-0.236-0.156-0.377-0.156h-1.351c0.393-0.438 0.658-0.976 0.764-1.555s0.052-1.176-0.159-1.726c-0.211-0.55-0.569-1.030-1.036-1.389s-1.023-0.582-1.609-0.645c0.232-0.642 0.252-1.342 0.058-1.996s-0.593-1.23-1.138-1.641c-0.545-0.412-1.207-0.638-1.89-0.647s-1.35 0.202-1.905 0.6c-0.793-1.042-2.068-1.667-3.468-1.667-1.672 0-3.154 0.895-3.853 2.277-0.479-0.149-0.986-0.182-1.48-0.099s-0.962 0.282-1.366 0.579-0.732 0.685-0.958 1.133c-0.226 0.447-0.344 0.942-0.344 1.443 0 0.036 0.001 0.072 0.002 0.108-0.37 0.075-0.731 0.189-1.077 0.34-0.248-0.473-0.573-0.902-0.962-1.269-0.659-0.627-1.068-1.473-1.148-2.379h0.518c0.141 0 0.277-0.056 0.377-0.156s0.156-0.236 0.156-0.377v-1.067c-0-0.424-0.169-0.831-0.469-1.131s-0.707-0.469-1.131-0.469h-3.2c-0.424 0-0.831 0.169-1.131 0.469s-0.469 0.707-0.469 1.131v1.067c0 0.141 0.056 0.277 0.156 0.377s0.236 0.156 0.377 0.156h0.518c-0.080 0.906-0.489 1.752-1.148 2.379-0.477 0.447-0.856 0.987-1.115 1.587s-0.391 1.247-0.388 1.9c-0 0.394 0.145 0.774 0.409 1.067-0.263 0.293-0.409 0.673-0.409 1.067v0.533h-1.067c-0.141 0-0.277 0.056-0.377 0.156s-0.156 0.236-0.156 0.377v3.2c0 0.129 0.047 0.253 0.132 0.351s0.202 0.16 0.33 0.177l0.795 6.36-1.061 1.945c-0.142 0.258-0.21 0.55-0.196 0.844s0.109 0.579 0.274 0.822c0.165 0.244 0.395 0.437 0.663 0.558s0.565 0.166 0.857 0.129l0.177 1.415c0.128 1.025 1.039 1.797 2.118 1.797h23.82c1.079 0 1.99-0.773 2.118-1.797l0.18-1.437c0.33 0.041 0.666-0.023 0.957-0.183 0.184-0.101 0.347-0.237 0.479-0.4s0.23-0.351 0.29-0.553c0.059-0.202 0.078-0.413 0.056-0.622s-0.086-0.411-0.186-0.596l-1.059-1.941zM30.933 13.866v2.133h-4.226l-1.164-2.133h5.389zM30.463 17.066l-0.592 4.733-2.581-4.733h3.173zM14.934 5.333c0.344-0.001 0.683 0.082 0.987 0.242 0.068 0.036 0.144 0.056 0.221 0.060s0.154-0.009 0.226-0.038c0.072-0.029 0.136-0.073 0.189-0.129s0.093-0.123 0.118-0.196c0.415-1.239 1.644-2.072 3.059-2.072 1.22 0 2.352 0.652 2.883 1.661 0.040 0.076 0.098 0.141 0.168 0.19s0.152 0.080 0.237 0.091c0.085 0.011 0.172 0.001 0.252-0.029s0.153-0.079 0.21-0.142c0.289-0.32 0.668-0.545 1.087-0.645s0.859-0.071 1.261 0.084c0.402 0.155 0.748 0.428 0.992 0.783s0.375 0.776 0.375 1.207c0.002 0.484-0.163 0.955-0.467 1.332-0.069 0.086-0.11 0.192-0.116 0.302s0.021 0.22 0.080 0.314 0.145 0.167 0.247 0.21c0.102 0.043 0.215 0.053 0.322 0.028 0.293-0.066 0.596-0.069 0.89-0.010s0.572 0.18 0.817 0.354 0.449 0.398 0.601 0.657c0.152 0.259 0.248 0.547 0.281 0.845s0.003 0.6-0.089 0.886c-0.092 0.286-0.242 0.549-0.442 0.773s-0.445 0.402-0.719 0.525-0.571 0.186-0.871 0.185h-1.311c-0.261-0.829-0.72-1.581-1.338-2.192s-1.376-1.062-2.207-1.313c-0.832-0.251-1.712-0.296-2.565-0.129s-1.652 0.539-2.328 1.085c-0.12 0.097-0.235 0.198-0.345 0.305-0.428-0.922-1.111-1.703-1.968-2.251s-1.853-0.838-2.87-0.838c0.001-0.566 0.226-1.108 0.626-1.508s0.942-0.625 1.508-0.625zM25.289 12.799h-7.911c0.273-0.672 0.712-1.264 1.275-1.72 0.759-0.612 1.705-0.947 2.68-0.947s1.921 0.334 2.68 0.947c0.564 0.456 1.002 1.048 1.275 1.72zM11.046 8.91c0.72-0.324 1.515-0.443 2.298-0.342s1.523 0.416 2.137 0.912c0.646 0.523 1.127 1.223 1.383 2.015-0.264 0.405-0.472 0.844-0.618 1.305h-5.045v-0.533c0-0.394-0.145-0.774-0.409-1.067 0.263-0.293 0.409-0.673 0.409-1.067 0-0.412-0.052-0.823-0.156-1.223zM23.823 13.866l-1.014 0.553c-0.124 0.068-0.216 0.182-0.256 0.318s-0.024 0.282 0.043 0.406l0.467 0.856h-14.112l0.455-0.834c0.068-0.124 0.083-0.27 0.043-0.406s-0.132-0.25-0.256-0.318l-1.055-0.576h15.685zM4.268 2.667c0-0.141 0.056-0.277 0.156-0.377s0.236-0.156 0.377-0.156h3.2c0.141 0 0.277 0.056 0.377 0.156s0.156 0.236 0.156 0.377v0.533h-4.266v-0.533zM8.15 6.4h-3.497c0.387-0.649 0.616-1.38 0.669-2.133h2.159c0.053 0.754 0.282 1.484 0.669 2.133zM3.791 7.466h5.22c0.357 0.346 0.64 0.761 0.833 1.219s0.291 0.951 0.29 1.448c-0 0.141-0.056 0.277-0.156 0.377s-0.236 0.156-0.377 0.156h-6.4c-0.141-0-0.277-0.056-0.377-0.156s-0.156-0.236-0.156-0.377c-0.002-0.497 0.097-0.99 0.29-1.448s0.476-0.873 0.833-1.219zM2.668 12.266c0-0.141 0.056-0.277 0.156-0.377s0.236-0.156 0.377-0.156h6.4c0.141 0 0.277 0.056 0.377 0.156s0.156 0.236 0.156 0.377v0.533h-7.466v-0.533zM1.069 15.999v-2.133h5.401l-1.163 2.133h-4.238zM4.725 17.066l-2.591 4.751-0.594-4.751h3.185zM2.070 26.387c-0.046 0.084-0.114 0.154-0.196 0.203s-0.177 0.075-0.273 0.075c-0.089 0-0.176-0.022-0.254-0.065-0.124-0.068-0.216-0.182-0.256-0.318s-0.024-0.282 0.043-0.406l6.144-11.265 0.936 0.511-6.144 11.264zM28.971 29.002c-0.061 0.492-0.517 0.863-1.060 0.863h-23.819c-0.543 0-0.998-0.371-1.060-0.863l-0.227-1.816c0.078-0.088 0.146-0.185 0.202-0.288l3.928-7.202v2.703c0 0.141 0.056 0.277 0.156 0.377s0.236 0.156 0.377 0.156 0.277-0.056 0.377-0.156c0.1-0.1 0.156-0.236 0.156-0.377v-3.2c-0-0.137-0.053-0.268-0.147-0.367s-0.222-0.158-0.359-0.165l0.873-1.601h15.275l0.873 1.601c-0.139 0.004-0.27 0.062-0.367 0.161s-0.151 0.233-0.151 0.371v3.2c0 0.141 0.056 0.277 0.156 0.377s0.236 0.156 0.377 0.156 0.277-0.056 0.377-0.156c0.1-0.1 0.156-0.236 0.156-0.377v-2.725l3.928 7.202c0.057 0.104 0.126 0.202 0.205 0.291l-0.229 1.836zM30.912 26.26c-0.030 0.101-0.089 0.191-0.17 0.259s-0.18 0.11-0.285 0.121c-0.105 0.011-0.211-0.009-0.304-0.058s-0.17-0.125-0.221-0.217l-6.144-11.264 0.936-0.511 6.144 11.264c0.034 0.061 0.055 0.129 0.062 0.199s0.001 0.14-0.019 0.207z"></path>
</symbol>
</defs>
</svg>
